<svg xmlns="http://www.w3.org/2000/svg" version="1.1" xmlns:xlink="http://www.w3.org/1999/xlink" xmlns:svgjs="http://svgjs.dev/svgjs" width="1000" height="1000" viewBox="0 0 1000 1000"><rect width="1000" height="1000" fill="#ed1703"></rect><g transform="matrix(0.7,0,0,0.7,149.57609914045776,381.29020867195175)"><svg viewBox="0 0 396 134" data-background-color="#ed1703" preserveAspectRatio="xMidYMid meet" height="338" width="1000" xmlns="http://www.w3.org/2000/svg" xmlns:xlink="http://www.w3.org/1999/xlink"><g id="tight-bounds" transform="matrix(1,0,0,1,0.2398951362491175,0.23208873145935627)"><svg viewBox="0 0 395.52 133.5358231960197" height="133.5358231960197" width="395.52"><g><svg viewBox="0 0 395.52 133.5358231960197" height="133.5358231960197" width="395.52"><g transform="matrix(1,0,0,1,0,85.6391942745119)"><svg viewBox="0 0 395.52 47.8966289215078" height="47.8966289215078" width="395.52"><g id="textblocktransform"><svg viewBox="0 0 395.52 47.8966289215078" height="47.8966289215078" width="395.52" id="textblock"><g><svg viewBox="0 0 395.52 27.641781460034444" height="27.641781460034444" width="395.52"><g transform="matrix(1,0,0,1,0,0)"><svg width="395.52" viewBox="1.954016089439392 -34.361297607421875 669.5868530273438 46.79554748535156" height="27.641781460034444" data-palette-color="#ffffff"><path d="M1.958-22.174v0c-0.039-0.612 0.198-0.934 0.71-0.967v0l6.856-0.436c0.512-0.033 0.787 0.241 0.824 0.819v0l1.776 27.954c0.027 0.419 0.216 0.618 0.569 0.595v0l15.299-0.972c0.579-0.037 0.883 0.184 0.914 0.664v0l0.289 4.561c0.016 0.253-0.044 0.464-0.18 0.632-0.136 0.169-0.364 0.264-0.683 0.284v0l-23.114 1.468c-0.412 0.026-0.697-0.036-0.853-0.186-0.157-0.15-0.246-0.402-0.268-0.754v0zM31.952 10.755v0c-0.293 0.017-0.51-0.098-0.651-0.343-0.141-0.252-0.161-0.588-0.057-1.009v0l10.049-33.929c0.106-0.36 0.235-0.618 0.387-0.773 0.151-0.156 0.42-0.244 0.806-0.266v0l7.188-0.412c0.706-0.04 1.208 0.285 1.508 0.976v0l13.752 32.568c0.108 0.254 0.124 0.534 0.048 0.839-0.082 0.312-0.267 0.476-0.553 0.492v0l-7.049 0.403c-0.486 0.028-0.805-0.178-0.956-0.616v0l-2.897-6.866c-0.036-0.158-0.096-0.282-0.181-0.37-0.092-0.095-0.248-0.136-0.468-0.124v0l-11.711 0.67c-0.319 0.018-0.517 0.19-0.592 0.514v0l-2.139 7.254c-0.049 0.19-0.144 0.345-0.284 0.467-0.14 0.122-0.37 0.191-0.689 0.21v0zM42.679-4.492l7.867-0.45c0.446-0.025 0.573-0.307 0.383-0.843v0l-4.675-10.991c-0.104-0.188-0.213-0.278-0.326-0.272-0.113 0.006-0.21 0.126-0.291 0.357v0l-3.434 11.405c-0.195 0.559-0.036 0.823 0.476 0.794zM100.568 5.921v0c0.174 0.278 0.234 0.539 0.18 0.782-0.048 0.243-0.265 0.374-0.651 0.393v0l-7.201 0.363c-0.706 0.036-1.181-0.197-1.427-0.699v0l-8.49-14.681c-0.244-0.341-0.544-0.263-0.899 0.235v0l-4.018 5.31c-0.18 0.263-0.26 0.604-0.239 1.023v0l0.426 8.439c0.037 0.739-0.374 1.13-1.233 1.174v0l-6.052 0.305c-0.413 0.021-0.696-0.045-0.851-0.197-0.155-0.152-0.24-0.388-0.256-0.708v0l-1.701-33.738c-0.031-0.613 0.21-0.932 0.723-0.957v0l6.911-0.349c0.479-0.024 0.733 0.237 0.76 0.783v0l0.724 14.352c0.014 0.286 0.079 0.437 0.193 0.451 0.114 0.008 0.246-0.089 0.396-0.291v0l10.879-15.177c0.18-0.263 0.377-0.463 0.591-0.6 0.22-0.145 0.536-0.227 0.948-0.248v0l5.763-0.291c0.419-0.021 0.721 0.077 0.906 0.295 0.185 0.218 0.158 0.476-0.081 0.775v0l-8.674 11.261c-0.237 0.332-0.248 0.717-0.032 1.153v0zM118.082 6.796v0c-3.39 0.149-6.349-0.452-8.877-1.802-2.528-1.344-4.515-3.348-5.96-6.014-1.452-2.659-2.26-5.86-2.425-9.603v0c-0.168-3.81 0.368-7.12 1.606-9.93 1.244-2.817 3.066-5.023 5.464-6.616 2.399-1.6 5.26-2.473 8.584-2.62v0c3.33-0.146 6.253 0.472 8.77 1.857 2.51 1.378 4.497 3.406 5.963 6.084 1.466 2.678 2.282 5.922 2.449 9.732v0c0.165 3.743-0.356 7.006-1.561 9.788-1.213 2.776-3.019 4.954-5.418 6.534-2.4 1.58-5.264 2.444-8.595 2.59zM117.823 0.892v0c2.631-0.116 4.51-1.153 5.638-3.111 1.135-1.958 1.608-5.099 1.418-9.421v0c-0.194-4.416-0.951-7.596-2.271-9.54-1.32-1.944-3.279-2.859-5.877-2.744v0c-2.624 0.115-4.515 1.206-5.671 3.272-1.157 2.073-1.639 5.3-1.446 9.683v0c0.189 4.289 0.941 7.369 2.258 9.24 1.316 1.864 3.3 2.738 5.951 2.621zM134.757-24.75l-0.169-4.466c-0.01-0.26 0.062-0.473 0.216-0.639 0.154-0.166 0.391-0.255 0.711-0.267v0l27.56-1.038c0.353-0.013 0.603 0.057 0.749 0.212 0.153 0.154 0.234 0.361 0.243 0.622v0l0.169 4.466c0.018 0.48-0.259 0.73-0.833 0.752v0l-8.983 0.339c-0.353 0.013-0.524 0.18-0.512 0.499v0l1.062 28.19c0.023 0.606-0.239 0.92-0.786 0.94v0l-6.865 0.259c-0.48 0.018-0.73-0.246-0.75-0.793v0l-1.06-28.14c-0.016-0.413-0.2-0.613-0.553-0.599v0l-9.263 0.349c-0.606 0.023-0.918-0.206-0.936-0.686zM164.252 4.489v0c-0.293 0.009-0.507-0.111-0.641-0.359-0.135-0.256-0.146-0.592-0.033-1.01v0l10.9-33.665c0.115-0.357 0.251-0.612 0.406-0.764 0.155-0.152 0.426-0.234 0.812-0.246v0l7.197-0.23c0.706-0.023 1.201 0.315 1.483 1.013v0l12.928 32.904c0.102 0.257 0.111 0.537 0.027 0.839-0.09 0.31-0.278 0.469-0.565 0.479v0l-7.057 0.225c-0.486 0.016-0.8-0.198-0.941-0.64v0l-2.723-6.936c-0.032-0.159-0.089-0.284-0.172-0.375-0.09-0.097-0.245-0.142-0.464-0.135v0l-11.724 0.375c-0.32 0.01-0.521 0.177-0.605 0.499v0l-2.321 7.198c-0.054 0.188-0.152 0.342-0.295 0.46-0.143 0.118-0.374 0.182-0.694 0.192v0zM175.36-10.483l7.875-0.252c0.446-0.014 0.581-0.292 0.404-0.833v0l-4.397-11.105c-0.099-0.19-0.206-0.284-0.319-0.28-0.113 0.004-0.213 0.12-0.299 0.349v0l-3.72 11.315c-0.209 0.554-0.057 0.822 0.455 0.806zM213.119 3.025v0c-0.673 0.015-1.018-0.347-1.034-1.087v0l-0.76-33.621c-0.014-0.613 0.252-0.926 0.799-0.938v0l9.947-0.225c0.353-0.008 0.611 0.036 0.773 0.132 0.162 0.09 0.293 0.277 0.393 0.562v0l7.713 19.97c0.1 0.284 0.213 0.419 0.34 0.403 0.133-0.023 0.243-0.162 0.33-0.418v0l6.472-19.901c0.177-0.744 0.521-1.122 1.035-1.134v0l10.327-0.233c0.48-0.011 0.726 0.274 0.74 0.853v0l0.76 33.632c0.017 0.766-0.374 1.159-1.174 1.177v0l-6.198 0.14c-0.387 0.009-0.652-0.065-0.796-0.222-0.15-0.157-0.229-0.395-0.236-0.715v0l-0.541-23.924c-0.005-0.227-0.064-0.329-0.177-0.306-0.113 0.016-0.197 0.138-0.251 0.366v0l-7.864 24.253c-0.182 0.518-0.512 0.782-0.993 0.793v0l-3.989 0.09c-0.547 0.012-0.906-0.236-1.077-0.746v0l-8.844-23.546c-0.1-0.284-0.206-0.409-0.319-0.373-0.113 0.036-0.166 0.18-0.16 0.434v0l0.534 23.594c0.007 0.32-0.044 0.544-0.155 0.674-0.11 0.129-0.342 0.198-0.696 0.206v0zM256.548 2.091v0c-0.293 0.004-0.505-0.119-0.635-0.371-0.13-0.258-0.135-0.595-0.015-1.01v0l11.488-33.469c0.122-0.355 0.261-0.607 0.42-0.756 0.158-0.149 0.43-0.226 0.816-0.232v0l7.2-0.104c0.707-0.01 1.195 0.336 1.465 1.039v0l12.349 33.125c0.097 0.259 0.101 0.539 0.012 0.84-0.096 0.308-0.287 0.464-0.573 0.469v0l-7.059 0.102c-0.487 0.007-0.796-0.212-0.93-0.657v0l-2.601-6.983c-0.029-0.16-0.084-0.285-0.166-0.378-0.088-0.099-0.242-0.147-0.462-0.143v0l-11.728 0.169c-0.32 0.005-0.524 0.168-0.613 0.489v0l-2.447 7.156c-0.057 0.188-0.158 0.339-0.304 0.454-0.145 0.115-0.378 0.175-0.697 0.18v0zM267.916-12.684l7.879-0.114c0.447-0.006 0.586-0.282 0.418-0.826v0l-4.201-11.181c-0.096-0.192-0.201-0.287-0.314-0.285-0.113 0.002-0.215 0.116-0.306 0.344v0l-3.918 11.248c-0.219 0.55-0.071 0.821 0.442 0.814zM287.057-28.67l-0.04-4.47c-0.002-0.26 0.076-0.471 0.234-0.632 0.159-0.161 0.398-0.244 0.718-0.247v0l27.579-0.244c0.353-0.003 0.601 0.075 0.742 0.233 0.148 0.159 0.223 0.368 0.226 0.628v0l0.039 4.47c0.004 0.48-0.28 0.723-0.853 0.728v0l-8.99 0.08c-0.353 0.003-0.529 0.165-0.526 0.484v0l0.251 28.209c0.005 0.607-0.265 0.912-0.812 0.917v0l-6.87 0.061c-0.48 0.004-0.722-0.267-0.727-0.813v0l-0.25-28.159c-0.004-0.413-0.182-0.618-0.535-0.616v0l-9.27 0.083c-0.607 0.005-0.912-0.232-0.916-0.712zM321.64-33.367v0c-0.002-0.613 0.254-0.921 0.768-0.922v0l24.22-0.072c0.48-0.001 0.721 0.271 0.722 0.818v0l-0.037 4.33c0.002 0.667-0.33 1.001-0.997 1.003v0l-15.33 0.045c-0.613 0.002-0.919 0.259-0.918 0.773v0l0.021 6.97c0.002 0.547 0.242 0.819 0.722 0.818v0l10.19-0.03c0.547-0.002 0.821 0.254 0.823 0.767v0l0.013 4.61c0.001 0.193-0.056 0.353-0.168 0.481-0.113 0.127-0.313 0.191-0.6 0.191v0l-10.279 0.031c-0.453 0.001-0.679 0.195-0.679 0.582v0l0.023 7.54c0.001 0.42 0.179 0.629 0.532 0.628v0l16.439-0.049c0.573-0.002 0.861 0.237 0.863 0.718v0l0.013 4.57c0.001 0.253-0.072 0.46-0.218 0.62-0.14 0.16-0.386 0.241-0.739 0.243v0l-24.22 0.072c-0.707 0.002-1.061-0.334-1.063-1.007v0zM382.025 0.111v0c0.126 0.354 0.118 0.66-0.023 0.919-0.147 0.253-0.381 0.379-0.701 0.378v0l-7.06-0.023c-0.547-0.002-0.899-0.29-1.057-0.863v0l-5.146-13.477c-0.192-0.447-0.641-0.672-1.348-0.675v0l-4.56-0.015c-0.227-0.001-0.38 0.062-0.46 0.189-0.08 0.126-0.121 0.24-0.121 0.339v0l-0.044 13.31c-0.003 0.767-0.434 1.149-1.294 1.146v0l-6.11-0.02c-0.38-0.001-0.643-0.082-0.789-0.242-0.146-0.16-0.219-0.401-0.218-0.721v0l0.111-33.78c0.002-0.613 0.26-0.919 0.773-0.917v0l15 0.049c4.287 0.014 7.621 0.875 10.002 2.582 2.381 1.708 3.567 4.132 3.556 7.272v0c-0.005 1.633-0.313 3.089-0.925 4.367-0.611 1.278-1.414 2.342-2.41 3.192-0.996 0.843-2.088 1.47-3.276 1.879v0c-0.287 0.099-0.351 0.339-0.193 0.72v0zM368.159-19.295v0c1.827 0.006 3.228-0.383 4.204-1.166 0.983-0.783 1.476-1.929 1.481-3.435v0c0.005-1.567-0.488-2.752-1.478-3.555-0.991-0.803-2.303-1.208-3.936-1.213v0l-5.91-0.019c-0.613-0.002-0.921 0.267-0.923 0.806v0l-0.025 7.74c-0.002 0.547 0.224 0.821 0.677 0.823v0zM388.778-34.191l6.869 0.054c0.513 0.004 0.768 0.296 0.764 0.876v0l-0.265 33.639c-0.003 0.413-0.109 0.709-0.317 0.888-0.208 0.172-0.535 0.256-0.982 0.252v0l-6.06-0.048c-0.413-0.003-0.693-0.085-0.838-0.246-0.145-0.161-0.217-0.418-0.214-0.772v0l0.265-33.729c0.005-0.613 0.264-0.918 0.778-0.914zM401.746 1.594v0c-0.293-0.004-0.502-0.133-0.625-0.388-0.123-0.262-0.119-0.598 0.014-1.01v0l12.406-33.14c0.131-0.352 0.278-0.6 0.44-0.744 0.162-0.145 0.436-0.214 0.823-0.21v0l7.199 0.095c0.707 0.009 1.185 0.369 1.436 1.079v0l11.432 33.453c0.09 0.261 0.086 0.541-0.011 0.84-0.104 0.305-0.299 0.456-0.586 0.452v0l-7.06-0.092c-0.487-0.006-0.79-0.234-0.911-0.682v0l-2.407-7.053c-0.025-0.16-0.076-0.288-0.155-0.382-0.085-0.101-0.238-0.153-0.458-0.156v0l-11.729-0.154c-0.32-0.004-0.529 0.153-0.627 0.472v0l-2.643 7.086c-0.062 0.186-0.168 0.334-0.316 0.446-0.148 0.111-0.382 0.165-0.702 0.16v0zM413.517-12.863l7.88 0.104c0.447 0.006 0.594-0.266 0.44-0.814v0l-3.891-11.293c-0.091-0.195-0.193-0.293-0.307-0.294-0.113-0.001-0.218 0.11-0.314 0.336v0l-4.227 11.136c-0.234 0.544-0.094 0.819 0.419 0.825zM440.435-32.608v0c0.012-0.613 0.274-0.915 0.787-0.905v0l6.869 0.133c0.513 0.01 0.764 0.305 0.753 0.884v0l-0.541 28.005c-0.008 0.42 0.164 0.633 0.517 0.64v0l15.328 0.297c0.58 0.011 0.865 0.257 0.855 0.736v0l-0.088 4.569c-0.005 0.253-0.082 0.459-0.232 0.616-0.15 0.157-0.385 0.233-0.704 0.226v0l-23.156-0.447c-0.413-0.008-0.692-0.093-0.835-0.257-0.144-0.163-0.212-0.421-0.205-0.774v0zM500.887-23.701v0c-0.679-0.785-1.53-1.496-2.552-2.131-1.03-0.642-2.504-0.989-4.424-1.041v0c-2.019-0.055-3.535 0.267-4.548 0.966-1.013 0.693-1.534 1.599-1.564 2.719v0c-0.011 0.387 0.075 0.806 0.255 1.257 0.181 0.452 0.556 0.895 1.124 1.331 0.562 0.429 1.368 0.818 2.419 1.167v0l7.529 2.366c2.924 0.88 5.034 2.228 6.332 4.044 1.298 1.816 1.914 3.894 1.85 6.233v0c-0.061 2.239-0.691 4.166-1.888 5.781-1.198 1.621-2.882 2.852-5.053 3.693-2.17 0.834-4.728 1.211-7.674 1.131v0c-2.179-0.059-4.215-0.362-6.107-0.907-1.892-0.552-3.555-1.321-4.989-2.307-1.427-0.979-2.54-2.107-3.339-3.382v0c-0.151-0.324-0.207-0.589-0.168-0.795 0.032-0.206 0.198-0.418 0.497-0.637v0l3.768-2.448c0.386-0.21 0.698-0.298 0.938-0.264 0.239 0.04 0.452 0.176 0.639 0.407v0c0.747 0.981 1.485 1.801 2.214 2.462 0.736 0.66 1.596 1.151 2.581 1.471 0.985 0.314 2.167 0.489 3.547 0.527v0c2.079 0.057 3.754-0.228 5.025-0.854 1.264-0.619 1.915-1.618 1.952-2.997v0c0.015-0.546-0.098-1.053-0.338-1.52-0.247-0.474-0.646-0.901-1.196-1.283-0.55-0.382-1.333-0.747-2.351-1.095v0l-7.191-2.267c-1.878-0.598-3.443-1.411-4.695-2.439-1.252-1.028-2.19-2.224-2.813-3.588-0.617-1.357-0.905-2.772-0.864-4.245v0c0.056-2.053 0.673-3.88 1.85-5.482 1.184-1.602 2.822-2.847 4.914-3.737 2.092-0.89 4.514-1.297 7.266-1.222v0c1.826 0.05 3.526 0.306 5.101 0.769 1.575 0.456 2.992 1.072 4.251 1.847 1.26 0.768 2.275 1.693 3.045 2.774v0c0.122 0.163 0.214 0.349 0.275 0.558 0.061 0.208-0.042 0.422-0.307 0.642v0l-4.11 2.869c-0.197 0.121-0.374 0.157-0.533 0.105-0.159-0.051-0.381-0.21-0.668-0.478zM540.858-8.36v0c-0.112 3.358-0.778 6.027-1.998 8.007-1.22 1.98-2.917 3.364-5.092 4.153-2.174 0.794-4.751 1.142-7.729 1.042v0c-3.491-0.117-6.268-0.763-8.33-1.939-2.055-1.176-3.52-2.859-4.394-5.05-0.874-2.19-1.258-4.871-1.152-8.043v0l0.689-20.599c0.022-0.646 0.289-0.961 0.802-0.943v0l6.916 0.231c0.48 0.016 0.71 0.314 0.691 0.893v0l-0.728 21.758c-0.088 2.625 0.418 4.55 1.518 5.774 1.093 1.217 2.696 1.861 4.808 1.932v0c1.346 0.045 2.54-0.162 3.583-0.621 1.043-0.465 1.869-1.248 2.48-2.348 0.617-1.1 0.957-2.579 1.019-4.439v0l0.721-21.557c0.02-0.613 0.271-0.911 0.75-0.896v0l5.477 0.183c0.48 0.016 0.71 0.314 0.69 0.894v0zM576.794-18.281v0c-0.095 2.371-0.734 4.344-1.918 5.918-1.184 1.567-2.761 2.728-4.734 3.484-1.972 0.755-4.237 1.081-6.794 0.979v0l-7.204-0.289c-0.353-0.014-0.537 0.155-0.551 0.509v0l-0.481 12c-0.03 0.739-0.461 1.092-1.293 1.059v0l-6.145-0.246c-0.38-0.015-0.64-0.106-0.78-0.271-0.14-0.166-0.204-0.408-0.191-0.729v0l1.352-33.753c0.025-0.613 0.293-0.909 0.806-0.888v0l14.408 0.577c2.558 0.102 4.887 0.599 6.986 1.491 2.093 0.884 3.733 2.168 4.92 3.85 1.18 1.682 1.72 3.785 1.619 6.309zM568.156-18.767v0c0.045-1.119-0.158-2.048-0.608-2.786-0.451-0.739-1.115-1.302-1.994-1.691-0.885-0.389-1.904-0.607-3.057-0.653v0l-5.325-0.213c-0.613-0.025-0.93 0.236-0.953 0.782v0l-0.328 8.204c-0.025 0.613 0.19 0.928 0.643 0.946v0l5.905 0.236c1.692 0.068 3.052-0.328 4.081-1.187 1.029-0.86 1.574-2.072 1.636-3.638zM611.192-16.674v0c-0.11 2.371-0.763 4.339-1.957 5.905-1.194 1.559-2.779 2.71-4.756 3.453-1.977 0.742-4.244 1.054-6.801 0.935v0l-7.202-0.336c-0.353-0.016-0.538 0.152-0.554 0.505v0l-0.558 11.997c-0.034 0.739-0.468 1.089-1.301 1.051v0l-6.143-0.287c-0.38-0.018-0.639-0.11-0.778-0.276-0.139-0.167-0.201-0.41-0.186-0.729v0l1.571-33.744c0.029-0.613 0.299-0.907 0.812-0.883v0l14.404 0.671c2.557 0.119 4.883 0.631 6.976 1.536 2.087 0.898 3.719 2.192 4.895 3.882 1.169 1.69 1.695 3.796 1.578 6.32zM602.558-17.216v0c0.052-1.119-0.145-2.049-0.591-2.791-0.446-0.742-1.107-1.31-1.983-1.704-0.883-0.395-1.9-0.619-3.052-0.672v0l-5.324-0.248c-0.613-0.029-0.932 0.23-0.957 0.776v0l-0.382 8.201c-0.029 0.613 0.184 0.93 0.636 0.951v0l5.904 0.275c1.692 0.079 3.054-0.308 4.088-1.162 1.034-0.853 1.588-2.062 1.661-3.626zM616.981-26.557v0c0.032-0.612 0.305-0.905 0.817-0.879v0l6.861 0.362c0.513 0.027 0.754 0.33 0.723 0.909v0l-1.474 27.971c-0.022 0.419 0.143 0.638 0.496 0.657v0l15.309 0.807c0.579 0.031 0.856 0.285 0.83 0.765v0l-0.24 4.564c-0.013 0.253-0.097 0.456-0.252 0.607-0.155 0.152-0.392 0.22-0.712 0.203v0l-23.128-1.219c-0.413-0.022-0.688-0.116-0.826-0.284-0.138-0.168-0.198-0.428-0.179-0.78v0zM670.892-24.465v0c0.319 0.019 0.521 0.12 0.604 0.305 0.09 0.179 0.046 0.41-0.131 0.694v0l-12.351 17.815c-0.21 0.275-0.336 0.561-0.381 0.859-0.051 0.304-0.1 0.856-0.146 1.655v0l-0.723 12.479c-0.044 0.765-0.516 1.122-1.414 1.07v0l-5.99-0.348c-0.419-0.024-0.694-0.12-0.825-0.288-0.137-0.168-0.196-0.429-0.175-0.781v0l0.748-12.909c0.026-0.446-0.001-0.781-0.082-1.006-0.087-0.232-0.218-0.497-0.395-0.794v0l-10.28-19.468c-0.168-0.33-0.183-0.595-0.044-0.794 0.139-0.206 0.415-0.297 0.827-0.272v0l7.198 0.417c0.419 0.024 0.705 0.108 0.857 0.25 0.152 0.136 0.316 0.369 0.49 0.7v0l6.375 12.88c0.174 0.331 0.324 0.51 0.45 0.537 0.126 0.021 0.277-0.107 0.453-0.384v0l7.737-12.163c0.213-0.342 0.41-0.564 0.589-0.667 0.18-0.103 0.462-0.143 0.849-0.121v0z" opacity="1" transform="matrix(1,0,0,1,0,0)" fill="#ffffff" class="wordmark-text-0" data-fill-palette-color="primary" id="text-0"></path></svg></g></svg></g><g transform="matrix(1,0,0,1,173.29260591548518,29.892320066864816)"><svg viewBox="0 0 48.934788169029645 18.004308854642982" height="18.004308854642982" width="48.934788169029645"><g transform="matrix(1,0,0,1,0,0)"><svg width="48.934788169029645" viewBox="0.9500000476837158 -36.349998474121094 100.70000457763672 37.04999923706055" height="18.004308854642982" data-palette-color="#ffffff"><path d="M25.15-7.8L23.75 0 0.95 0 7.3-36 16.3-36 11.35-7.8 25.15-7.8ZM34.1-36L43.5-36 48.85-18.75 60.35-36 69.8-36 63.45 0 54.4 0 58-20.3 50.3-8.2 43.75-8.2 40.35-20.3 36.75 0 27.75 0 34.1-36ZM80.09-10.25L80.09-10.25Q80.09-6.8 85.07-6.8 90.05-6.8 90.05-9.9L90.05-9.9Q90.05-11.55 88.34-12.6 86.64-13.65 84.22-14.35 81.8-15.05 79.37-15.98 76.94-16.9 75.25-18.88 73.55-20.85 73.55-23.8L73.55-23.8Q73.55-36.35 89.69-36.35L89.69-36.35Q95.59-36.35 98.62-34.13 101.65-31.9 101.65-27.95L101.65-27.95Q101.65-26.5 101.27-25.18 100.89-23.85 100.5-23.3L100.5-23.3 100.09-22.7 91.25-22.7Q92.34-23.85 92.34-25.6L92.34-25.6Q92.34-28.85 88.09-28.85L88.09-28.85Q82.75-28.85 82.75-25.45L82.75-25.45Q82.75-23.75 84.44-22.75 86.14-21.75 88.57-21.18 91-20.6 93.44-19.75 95.89-18.9 97.59-16.93 99.3-14.95 99.3-11.8L99.3-11.8Q99.3-5.45 95.5-2.38 91.69 0.7 83.8 0.7 75.89 0.7 73-2.1L73-2.1Q70.84-4.2 70.84-7.9L70.84-7.9Q70.84-9.3 71.14-10.95L71.14-10.95 71.3-11.75 80.3-11.75 80.19-11.15Q80.09-10.65 80.09-10.25Z" opacity="1" transform="matrix(1,0,0,1,0,0)" fill="#ffffff" class="slogan-text-1" data-fill-palette-color="secondary" id="text-1"></path></svg></g></svg></g></svg></g></svg></g><g transform="matrix(1,0,0,1,132.30713800945358,0)"><svg viewBox="0 0 130.90572398109285 77.49674559499961" height="77.49674559499961" width="130.90572398109285"><g><svg xmlns="http://www.w3.org/2000/svg" xmlns:xlink="http://www.w3.org/1999/xlink" version="1.1" x="0" y="0" viewBox="5.625647068023682 22.99921417236328 91.37435913085938 54.09400939941406" enable-background="new 0 0 100 100" xml:space="preserve" height="77.49674559499961" width="130.90572398109285" class="icon-icon-0" data-fill-palette-color="accent" id="icon-0"><g fill="#ffffff" data-fill-palette-color="accent"><path d="M94.912 49.069c0.326 0.291 0.674 0.453 1.641 0.597-0.295-0.195-0.877-0.684-1.006-1.118 0.344 0.259 0.801 0.401 1.453 0.597-0.57-0.597-0.912-0.707-1.193-0.969-0.1-0.092-0.277-0.297-0.369-0.396-0.17-0.181-0.535-0.519-0.676-0.722-0.141-0.205-0.141-0.205-0.445-0.895 0.691 0.591 0.541 0.316 1.564 1.268-0.367-1.071-1.043-1.715-1.715-2.312-0.67-0.596-0.818-1.416-0.818-1.416s-0.299-3.205-0.969-4.249c-0.672-1.043-1.943-2.749-5.592-3.801-0.285-0.083-1.051-0.26-2.012-0.447-1.715-0.334-3.137-0.874-5.74-2.014-1.727-0.756-3.996-0.8-5.217-1.267-0.563-0.214-1.641-0.969-1.641-0.969l-0.895-0.522-0.674-0.249-0.816-0.198c0 0-1.49-0.895-1.789-0.895s-1.938-0.596-2.162-0.67c-0.223-0.075-1.193-0.522-1.641-0.82s-2.234-0.895-2.234-0.895-1.566-0.596-1.865-0.596c-0.297 0-1.938-0.522-2.385-0.597-0.445-0.074-1.787-0.522-1.787-0.522l-1.77-0.521-1.555-0.218c0 0-1.451 0.003-1.895-0.154-0.352-0.125-1.47-0.52-1.992-0.52s-1.586 0.228-1.884 0.004c-0.298-0.224-2.087-0.522-2.311-0.522s-1.417 0-1.714 0c-0.298 0-1.118-0.074-1.417 0-0.298 0.075-2.13 0-2.13 0s-0.88-0.155-1.398 0.026c-0.521 0.181-2.434 0.639-2.658 0.639s-0.671 0.223-1.043 0.373c-0.373 0.149-1.789 0.522-1.789 0.522l-1.64 0.746c0 0-1.228 0.366-1.601 0.441-0.372 0.074-1.224 0.861-1.373 1.085-0.149 0.224-0.33 0.449-0.777 0.598s-0.933 0.537-0.933 0.537-0.162 0.469-0.684 0.469c-0.521 0-0.671 0.074-0.895 0.149-0.223 0.075-0.372 0.298-0.82 0.373-0.447 0.074-0.894 0.596-0.894 0.596s-0.438 0.658-0.438 0.882c0 0.223-0.673 0.362-0.673 0.362l-0.492 0.363c0 0-0.291 0.484-0.409 0.63-0.132 0.164-0.387 0.57-0.596 0.596-0.216 0.026-0.536-0.389-0.746-0.447-0.162-0.045-0.503 0-0.671 0-0.167 0-0.509 0.043-0.67 0-0.25-0.068-0.587-0.578-0.812-0.449-0.105 0.061 0.017 0.343-0.083 0.412-0.594 0.406-0.663-0.543-0.942-0.35-0.199 0.138-0.09 0.774-0.325 0.833-0.267 0.068-0.426-0.843-0.701-0.835-0.266 0.008-0.355 0.575-0.443 0.827-0.205 0.58-0.107 1.159-0.421 1.35-0.143 0.087-0.315 0.111-0.434 0.23-0.159 0.159-0.238 0.431-0.389 0.596-0.555 0.608-0.351 0.296-0.466 0.44-0.162 0.204-0.587-0.482-0.829-0.388-0.466 0.181-0.703 0.233-0.841 0.432-0.286 0.411-0.635-0.017-0.543 0.111 0.064 0.09-0.324 0.156-0.403 0.234-0.171 0.171-0.432 0.065-0.673 0.078-0.674 0.037-0.287 0.681-0.415 0.906-0.338 0.599-0.895 0.094-1.008 0.423-0.174 0.509-0.231 0.615-0.261 0.821-0.1 0.68-0.75 0.541-0.881 0.726-0.091 0.128 0.198 0.613 0.137 0.758-0.201 0.488-0.179 0.904 0 1.118 0.12 0.143 0.495 0.291 0.597 0.447 0.093 0.145-0.028 0.481-0.112 0.63-0.348 0.616-0.093 0.776-0.13 1.037-0.036 0.251-0.416 0.488-0.521 0.719-0.084 0.187 0.01 0.616 0 0.82-0.029 0.598-0.614 0.863-0.58 1.192 0.078 0.742 0.1 0.749 0 0.969-0.077 0.17 0.049 0.565 0 0.746-0.068 0.25-0.555 0.637-0.521 0.894 0.068 0.523-0.26 0.847-0.373 1.119-0.058 0.137-0.105 0.49 0 0.597 0.145 0.145 0.601 0.171 0.777 0.275 0.262 0.157 0.788 0.694 1.012 0.694s0.184 0.354 0.224 0.521c0.065 0.271 0.075 1.117 0.075 1.117v1.045c0 0-0.254 0.68-0.149 1.043 0.394 1.357 1.43 2.082 2.607 1.941 0 0 1.056 0.922 1.363 1.047 0.372 0.148 1.023 0.066 1.322 0.588 0.298 0.525 1.152 2.928 1.697 3.25 0.582 0.344 1.084 2.459 1.583 2.863 0.617 0.5 1.892 0.572 2.012 0.521 0.098-0.039-0.023-0.275 0.071-0.322 0.117-0.059 0.695 0.072 0.749-0.051 0.083-0.184-0.298-0.496-0.188-0.664 0.115-0.176 0.505 0.197 0.655 0.053 0.095-0.092-0.19-0.4-0.114-0.508 0.054-0.078 0.255 0.074 0.318 0.002 0.172-0.195-0.056-0.986 0.184-1.092 0.109-0.047 0.225 0.201 0.332 0.148 0.218-0.104-0.141-0.688 0.018-0.871 0.086-0.1 0.263 0.225 0.349 0.127 0.086-0.102-0.099-0.398 0.086-0.623 0.155-0.189 0.385 0.031 0.481-0.037 0.136-0.1-0.179-0.4-0.034-0.484 0.465-0.271 0.678-0.076 1.239-0.184 0.374-0.072 0.589-0.389 0.774-0.412 0.144-0.02 0.391 0.283 0.628 0.133 0.126-0.082 0.238 0.398 0.388 0.387 0.264-0.021 0.41-0.426 0.539-0.195 0.107 0.195 0.474 0.381 0.625 0.238 0.17-0.16 0.319-0.098 0.539 0.107 0.077 0.072 0.377 0.068 0.475 0.107 0.103 0.043 0.278 0.438 0.366 0.367 0.194-0.15 0.279-0.666 0.302-0.561 0.065 0.303 0.216 0.734 0.61 0.832 0.167 0.041 0.507 0.201 0.671 0.148 0.188-0.061 0.336-0.666 0.521-0.596 0.209 0.078-0.203 0.988 0 0.895 0.29-0.137 0.376-0.287 0.597 0 0.089 0.115 0.223 0.373 0.447 0.373 0.224 0 0.64 0.068 0.597 0.223-0.229 0.82-0.078 2.674-0.143 2.869-0.236 0.707-0.245 1.012-0.305 1.381-0.047 0.291-0.256 0.846-0.373 1.117-0.125 0.289-0.493 0.818-0.596 1.117-0.105 0.305-0.248 2.348-0.329 2.754-0.05 0.252-0.447 0.68-0.612 0.879-0.254 0.311-0.839 0.48-1.147 0.736-0.435 0.361-1.016 1.006-0.803 1.223 0.262 0.268 2.098 0.676 2.383 0.674 0.389 0 2.332-0.154 2.766-0.543 0.292-0.26 0.834-0.484 1.042-0.82 0.187-0.301 0.213-1.051 0.259-1.402 0.066-0.496 0.587-1.443 0.518-1.939-0.03-0.215-0.187-0.572-0.108-0.777 0.07-0.18 0.131-0.061 0.28-0.188 0.287-0.24 0.298-1.301 0.671-1.34 0.237-0.025 0.455 0.553 0.596 0.744 0.164 0.223 0.584 0.6 0.82 0.746 0.221 0.137 0.755 0.52 0.969 0.373 0.139-0.096-0.125-0.559 0-0.67 0.126-0.115 0.523 0.154 0.671 0.072 0.183-0.1 0.184-0.658 0.373-0.746 0.07-0.029 0.225 0.053 0.298 0.078 0.162 0.047 0.5 0.318 0.638 0.221 0.076-0.053-0.09-0.348 0-0.373 0.188-0.053 0.26 0.49 0.441 0.416 0.108-0.047 0.193-0.705 0.388-0.885 0.116-0.109 0.499 0.053 0.619-0.051 0.176-0.154 0.221-0.879 0.447-0.82 0.126 0.031 0.082 0.361 0.14 0.246 0.638-1.291 1.276-2.26 1.724-2.408 0.447-0.15 0.478-0.418 0.895-0.15 0.145 0.094 0.185-0.514 0.354-0.479 0.164 0.031 0.334 0.287 0.372 0.449 0.039 0.162 0.096 0.398 0.254 0.453 0.201 0.066 0.246-0.402 0.458-0.391 0.217 0.016 0.294 0.654 0.352 0.863 0.055 0.197 0.121 0.584 0.188 0.775 0.137 0.404 0.558 1.014 0.632 1.535 0.074 0.52 0.022 1.67 0 1.938-0.029 0.346 0.141 0.867 0.016 1.416-0.122 0.533-0.467 1.229-0.612 1.639-0.088 0.254-1.201 0.938-1.345 1.162-0.093 0.145-0.782 0.84-0.761 1.012 0.019 0.158 1.217 0.332 1.658 0.414 0.57 0.104 1.644 0.051 2.073 0.051 0.279 0 1.506-0.594 1.643-0.838 0.335-0.598 0.392-1.305 0.481-1.545 0.195-0.527 0.806-1.617 0.881-1.916s0.176-0.869 0.57-1.141c0.582-0.402 0.641-0.252 0.764-0.105 0.126 0.152 0.224 0.354 0.41 0.283 0.209-0.078-0.104-0.521 0.113-0.582 0.209-0.057 0.266 0.412 0.475 0.354 0.313-0.088-0.158-0.486-0.029-0.576 0.168-0.111 0.545 0.221 0.686 0.076 0.127-0.131-0.361-0.313-0.236-0.447 0.117-0.133 0.699 0.182 0.805 0.039 0.137-0.182-0.555-0.543-0.533-0.768 0.016-0.184 0.379-0.273 0.529-0.381 0.135-0.098 0.377-0.092 0.465-0.232 0.078-0.127-0.021-0.313 0.115-0.371 0.174-0.074 0.492 0.195 0.428 0.021-0.084-0.221-0.611-0.506-0.691-0.77-0.053-0.174 0.295 0.313 0.4 0.166 0.148-0.209-0.467-0.547-0.326-0.762 0.088-0.133 0.492 0.246 0.617 0.148 0.162-0.129-0.109-0.473 0-0.594 0.096-0.109 0.316 0.258 0.414 0.15 0.141-0.156-0.037-0.66 0.041-0.855 0.049-0.115 0 0 0.047-0.117 0.068-0.182-0.492-0.252-0.424-0.434 0.076-0.209 0.533-0.17 0.795-0.313 0.217-0.117-0.746-0.236-0.873-0.447-0.068-0.111 0.189-0.404 0.111-0.51-0.072-0.098-0.584-0.037-0.58-0.162 0.008-0.229 0.887 0.008 0.895-0.223 0.01-0.234-0.891-0.063-0.895-0.297-0.002-0.219-0.254-0.199-0.238-0.416 0.02-0.275 0.301-0.229 0.09-0.404-0.092-0.076-0.584-0.275-0.65-0.373-0.086-0.125-0.207-0.27-0.129-0.475 0.057-0.156-0.193-0.16-0.152-0.324 0.068-0.266 0.178-0.008 0.037-0.244-0.105-0.18 0.031-0.635 0.092-0.834 0.039-0.125 0.076-0.441 0.207-0.434 0.486 0.029-0.018-0.57 0.053-0.666 0.146-0.197 0.816-0.238 1.014-0.389 0.396-0.295 0.797-0.51 1.916-0.586 1.117-0.074 1.49 0.223 2.16 0.297 0.672 0.078 2.012 0.078 2.758 0.225 0.746 0.15 3.258 1.016 4.033 0.949 0.674-0.055 0.549 0.398 1.035 0.604 0.477 0.203 1.191 0.145 1.789 0 1.719-0.414 2.994-1.158 3.516-1.531s2.738-2.311 3.193-2.182c0.625 0.178 0.646 3.813 0.797 4.576 0.139 0.701 0.688 5.053 0.539 5.65-0.148 0.596-1.262 2.967-1.484 3.488-0.225 0.521-1.865 2.906-2.313 3.279s-1.639 1.344-2.012 1.863c-0.371 0.521-0.672 0.82 0.074 0.969s1.193 0.373 2.313 0.373c1.117 0 1.787 0.074 2.533-0.373 0.744-0.447 1.268-0.82 1.416-1.488 0.148-0.672 0.373-1.492 0.67-2.088 0.299-0.598 1.797-3.191 2.447-4.041 0.674-0.879 1.205-1.998 1.652-2.297 0.449-0.297 0.598-0.67 0.672-1.117 0.074-0.445-0.318-1.254-0.318-1.998s0.096-2.648 0.096-3.084c0-0.434 0.969-1.553 0.969-1.553s3.055 3.355 3.576 3.951c0.521 0.598 2.236 1.641 2.609 2.086 0.373 0.447 2.014 2.164 2.162 3.059s1.268 4.621 1.342 5.217c0.074 0.598-0.451 1.818-0.512 2.121-0.086 0.43-0.621 1.766-0.756 1.979-0.113 0.18-0.332 0.637-0.223 0.82 0.234 0.393 1.576 0.373 1.793 0.373 0.219 0 1.434-0.152 1.969-0.436 0.4-0.209 0.83-0.832 0.926-1.119 0.137-0.406-0.172-1.531-0.129-1.963 0.039-0.4-0.109-2.086-0.109-2.459s0.17-0.58 0.314-0.668c0.092-0.057-0.236-0.023-0.248-0.131-0.025-0.215 0.035-0.328-0.043-0.531-0.057-0.139 0.418-0.432 0.297-0.521-0.988-0.736-0.621-0.758-0.074-0.895 0.121-0.029-0.416-0.102-0.447-0.225-0.023-0.092 0.166-0.236 0.221-0.314 0.074-0.107-0.404-0.121-0.428-0.25-0.063-0.332-0.195-0.65-0.389-0.924-0.164-0.23-0.15-0.598-0.15-1.119s-0.373-1.566-0.373-2.236c0-0.672-0.371-1.713-0.371-2.012s0.082-1.127-0.299-1.416c-1.156-0.877-3.695-3.496-4.025-5.592-0.279-1.775 0.691-4.407 0.928-5.679 0.199-1.067-0.184-4.213-0.26-4.809-0.074-0.596 0.227-2.705-0.295-3.749s-1.193-2.013-1.193-2.013 1.492 0.149 2.162 0.82c0.672 0.671 1.564 1.789 1.715 2.833 0.148 1.043 0.596 2.459 0.521 2.757-0.074 0.298-1.043 2.013-1.043 2.236s-0.238 1.232-0.225 1.715c0.006 0.167 0.15 0.428 0.252 0.708 0.102 0.28 1.256 0.989 1.643 1.162-0.408-0.626-0.793-0.941-1.148-1.721 1.018 1.072 1.084 1.347 2.076 1.906 0.408 0.23 1.504 0.275 1.963 0.31-0.393-0.164-0.73-0.303-1.207-0.577-0.273-0.156-0.447-0.705-0.582-0.976-0.1-0.2-0.182-0.841-0.238-1.229C94.414 48.279 94.693 48.876 94.912 49.069zM22.945 40.174c-0.168 1.17-1.28 2.325-2.655 2.485-1.128 0.132-2.499-1.469-2.232-2.461 0.122-0.455 1.069-0.102 1.889-0.848 0.819-0.745-0.166-6.002 0.12-6.018 0.267-0.013 1.754 2.349 2.383 3.911C22.887 38.329 23.091 39.157 22.945 40.174z" fill="#ffffff" data-fill-palette-color="accent"></path></g></svg></g></svg></g><g></g></svg></g><defs></defs></svg><rect width="395.52" height="133.5358231960197" fill="none" stroke="none" visibility="hidden"></rect></g></svg></g></svg>